# xmcd CD database file
#
# Track frame offsets:
#	183
#	16368
#	34685
#	46072
#	64410
#	81648
#	95535
#	110388
#	127838
#	141658
#
# Disc length: 2143 seconds
#
# Revision: 9
# Processed by: cddbd v1.5.2PL0 Copyright (c) Steve Scherf et al.
# Submitted via: CDex 1.70beta2
#
DISCID=89085d0a
DTITLE=John Michael Montgomery - Brand New Me
DYEAR=2000
DGENRE=Country
TTITLE0=Brand New Me
TTITLE1=Bus to Birmingham
TTITLE2=Weekend superstar
TTITLE3=Thanks for the G chord
TTITLE4=Even Then
TTITLE5=That's what I like about you
TTITLE6=That's Not Her Picture
TTITLE7=The Little Girl (feat. Alison Krauss and Dan Tyminski)
TTITLE8=Real Love
TTITLE9=I Love It All
EXTD=YEAR: 2000
EXTT0=
EXTT1=
EXTT2=
EXTT3=
EXTT4=
EXTT5=
EXTT6=
EXTT7=
EXTT8=
EXTT9=
PLAYORDER=
